<mxfile host="app.diagrams.net" modified="2022-01-20T14:15:42.930Z" agent="5.0 (Windows NT 10.0; Win64; x64) AppleWebKit/537.36 (KHTML, like Gecko) Chrome/97.0.4692.71 Safari/537.36" etag="5XVwQWWl3d7aCGIt1XHm" version="16.4.0" type="github">
  <diagram id="Q_LQxlBgSki1LvanxPKW" name="Page-1">
    <mxGraphModel dx="2874" dy="763" grid="1" gridSize="10" guides="1" tooltips="1" connect="1" arrows="1" fold="1" page="1" pageScale="1" pageWidth="1169" pageHeight="827" math="0" shadow="0">
      <root>
        <mxCell id="0" />
        <mxCell id="1" parent="0" />
        <mxCell id="sq4rwOPdEHnDOBXyUKIg-10" value="&lt;p style=&quot;margin: 0px ; margin-top: 4px ; text-align: center&quot;&gt;&lt;b&gt;Agente&lt;/b&gt;&lt;/p&gt;&lt;hr size=&quot;1&quot;&gt;&lt;p style=&quot;margin: 0px ; margin-left: 4px&quot;&gt;&lt;br&gt;&lt;/p&gt;" style="verticalAlign=top;align=left;overflow=fill;fontSize=12;fontFamily=Helvetica;html=1;" vertex="1" parent="1">
          <mxGeometry x="-370" y="40" width="360" height="670" as="geometry" />
        </mxCell>
        <mxCell id="sq4rwOPdEHnDOBXyUKIg-1" value="&lt;p style=&quot;margin: 0px ; margin-top: 4px ; text-align: center&quot;&gt;&lt;b&gt;Sistema&lt;/b&gt;&lt;/p&gt;&lt;hr size=&quot;1&quot;&gt;&lt;p style=&quot;margin: 0px ; margin-left: 4px&quot;&gt;&lt;br&gt;&lt;/p&gt;" style="verticalAlign=top;align=left;overflow=fill;fontSize=12;fontFamily=Helvetica;html=1;" vertex="1" parent="1">
          <mxGeometry x="340" y="40" width="360" height="670" as="geometry" />
        </mxCell>
        <mxCell id="sq4rwOPdEHnDOBXyUKIg-3" value="&lt;p style=&quot;margin: 0px ; margin-top: 4px ; text-align: center&quot;&gt;&lt;b&gt;Contratante&lt;/b&gt;&lt;/p&gt;&lt;hr size=&quot;1&quot;&gt;&lt;p style=&quot;margin: 0px ; margin-left: 4px&quot;&gt;&lt;br&gt;&lt;/p&gt;" style="verticalAlign=top;align=left;overflow=fill;fontSize=12;fontFamily=Helvetica;html=1;" vertex="1" parent="1">
          <mxGeometry x="-20" y="40" width="360" height="670" as="geometry" />
        </mxCell>
        <mxCell id="sq4rwOPdEHnDOBXyUKIg-4" style="edgeStyle=orthogonalEdgeStyle;rounded=0;orthogonalLoop=1;jettySize=auto;html=1;entryX=0;entryY=0.5;entryDx=0;entryDy=0;" edge="1" parent="1" target="sq4rwOPdEHnDOBXyUKIg-7">
          <mxGeometry relative="1" as="geometry">
            <mxPoint x="50" y="120" as="sourcePoint" />
          </mxGeometry>
        </mxCell>
        <mxCell id="sq4rwOPdEHnDOBXyUKIg-5" value="" style="ellipse;html=1;shape=startState;fillColor=#000000;strokeColor=#ff0000;" vertex="1" parent="1">
          <mxGeometry x="30" y="105" width="30" height="30" as="geometry" />
        </mxCell>
        <mxCell id="sq4rwOPdEHnDOBXyUKIg-50" style="edgeStyle=orthogonalEdgeStyle;rounded=0;orthogonalLoop=1;jettySize=auto;html=1;exitX=0.5;exitY=1;exitDx=0;exitDy=0;entryX=1;entryY=0.5;entryDx=0;entryDy=0;" edge="1" parent="1" source="sq4rwOPdEHnDOBXyUKIg-7" target="sq4rwOPdEHnDOBXyUKIg-49">
          <mxGeometry relative="1" as="geometry">
            <Array as="points">
              <mxPoint x="160" y="185" />
              <mxPoint x="-90" y="185" />
              <mxPoint x="-90" y="145" />
            </Array>
          </mxGeometry>
        </mxCell>
        <mxCell id="sq4rwOPdEHnDOBXyUKIg-7" value="Solicitar aluguel" style="rounded=1;whiteSpace=wrap;html=1;arcSize=40;fontColor=#000000;fillColor=#ffffc0;strokeColor=#ff0000;" vertex="1" parent="1">
          <mxGeometry x="100" y="125" width="120" height="40" as="geometry" />
        </mxCell>
        <mxCell id="sq4rwOPdEHnDOBXyUKIg-54" value="" style="edgeStyle=orthogonalEdgeStyle;rounded=0;orthogonalLoop=1;jettySize=auto;html=1;" edge="1" parent="1" source="sq4rwOPdEHnDOBXyUKIg-49" target="sq4rwOPdEHnDOBXyUKIg-51">
          <mxGeometry relative="1" as="geometry" />
        </mxCell>
        <mxCell id="sq4rwOPdEHnDOBXyUKIg-49" value="Analisar Pedidos" style="rounded=1;whiteSpace=wrap;html=1;arcSize=40;fontColor=#000000;fillColor=#ffffc0;strokeColor=#ff0000;" vertex="1" parent="1">
          <mxGeometry x="-260" y="125" width="120" height="40" as="geometry" />
        </mxCell>
        <mxCell id="sq4rwOPdEHnDOBXyUKIg-57" style="edgeStyle=orthogonalEdgeStyle;rounded=0;orthogonalLoop=1;jettySize=auto;html=1;exitX=1;exitY=0.5;exitDx=0;exitDy=0;entryX=0;entryY=0.5;entryDx=0;entryDy=0;" edge="1" parent="1" source="sq4rwOPdEHnDOBXyUKIg-51" target="sq4rwOPdEHnDOBXyUKIg-56">
          <mxGeometry relative="1" as="geometry" />
        </mxCell>
        <mxCell id="sq4rwOPdEHnDOBXyUKIg-75" style="edgeStyle=orthogonalEdgeStyle;rounded=0;orthogonalLoop=1;jettySize=auto;html=1;exitX=0.5;exitY=1;exitDx=0;exitDy=0;entryX=0;entryY=0.5;entryDx=0;entryDy=0;" edge="1" parent="1" source="sq4rwOPdEHnDOBXyUKIg-51" target="sq4rwOPdEHnDOBXyUKIg-73">
          <mxGeometry relative="1" as="geometry" />
        </mxCell>
        <mxCell id="sq4rwOPdEHnDOBXyUKIg-51" value="" style="rhombus;whiteSpace=wrap;html=1;fillColor=#ffffc0;strokeColor=#ff0000;" vertex="1" parent="1">
          <mxGeometry x="-240" y="230" width="80" height="40" as="geometry" />
        </mxCell>
        <mxCell id="sq4rwOPdEHnDOBXyUKIg-59" value="" style="edgeStyle=orthogonalEdgeStyle;rounded=0;orthogonalLoop=1;jettySize=auto;html=1;" edge="1" parent="1" source="sq4rwOPdEHnDOBXyUKIg-56" target="sq4rwOPdEHnDOBXyUKIg-58">
          <mxGeometry relative="1" as="geometry" />
        </mxCell>
        <mxCell id="sq4rwOPdEHnDOBXyUKIg-56" value="Armazenar os dados do contratante" style="rounded=1;whiteSpace=wrap;html=1;arcSize=40;fontColor=#000000;fillColor=#ffffc0;strokeColor=#ff0000;" vertex="1" parent="1">
          <mxGeometry x="390" y="230" width="120" height="40" as="geometry" />
        </mxCell>
        <mxCell id="sq4rwOPdEHnDOBXyUKIg-61" value="" style="edgeStyle=orthogonalEdgeStyle;rounded=0;orthogonalLoop=1;jettySize=auto;html=1;" edge="1" parent="1" source="sq4rwOPdEHnDOBXyUKIg-58" target="sq4rwOPdEHnDOBXyUKIg-60">
          <mxGeometry relative="1" as="geometry" />
        </mxCell>
        <mxCell id="sq4rwOPdEHnDOBXyUKIg-58" value="Armazenar os dados do automóvel" style="rounded=1;whiteSpace=wrap;html=1;arcSize=40;fontColor=#000000;fillColor=#ffffc0;strokeColor=#ff0000;" vertex="1" parent="1">
          <mxGeometry x="390" y="320" width="120" height="40" as="geometry" />
        </mxCell>
        <mxCell id="sq4rwOPdEHnDOBXyUKIg-67" style="edgeStyle=orthogonalEdgeStyle;rounded=0;orthogonalLoop=1;jettySize=auto;html=1;exitX=0;exitY=0.5;exitDx=0;exitDy=0;entryX=1;entryY=0.5;entryDx=0;entryDy=0;" edge="1" parent="1" source="sq4rwOPdEHnDOBXyUKIg-60" target="sq4rwOPdEHnDOBXyUKIg-63">
          <mxGeometry relative="1" as="geometry" />
        </mxCell>
        <mxCell id="sq4rwOPdEHnDOBXyUKIg-60" value="Armazenar os dados do aluguel" style="rounded=1;whiteSpace=wrap;html=1;arcSize=40;fontColor=#000000;fillColor=#ffffc0;strokeColor=#ff0000;" vertex="1" parent="1">
          <mxGeometry x="390" y="413.5" width="120" height="40" as="geometry" />
        </mxCell>
        <mxCell id="sq4rwOPdEHnDOBXyUKIg-71" style="edgeStyle=orthogonalEdgeStyle;rounded=0;orthogonalLoop=1;jettySize=auto;html=1;exitX=0.5;exitY=1;exitDx=0;exitDy=0;entryX=0.5;entryY=0;entryDx=0;entryDy=0;" edge="1" parent="1" source="sq4rwOPdEHnDOBXyUKIg-63" target="sq4rwOPdEHnDOBXyUKIg-70">
          <mxGeometry relative="1" as="geometry" />
        </mxCell>
        <mxCell id="sq4rwOPdEHnDOBXyUKIg-63" value="Pagar aluguell" style="rounded=1;whiteSpace=wrap;html=1;arcSize=40;fontColor=#000000;fillColor=#ffffc0;strokeColor=#ff0000;" vertex="1" parent="1">
          <mxGeometry x="100" y="280" width="120" height="40" as="geometry" />
        </mxCell>
        <mxCell id="sq4rwOPdEHnDOBXyUKIg-74" style="edgeStyle=orthogonalEdgeStyle;rounded=0;orthogonalLoop=1;jettySize=auto;html=1;exitX=0.5;exitY=1;exitDx=0;exitDy=0;entryX=0.5;entryY=0;entryDx=0;entryDy=0;" edge="1" parent="1" source="sq4rwOPdEHnDOBXyUKIg-68" target="sq4rwOPdEHnDOBXyUKIg-73">
          <mxGeometry relative="1" as="geometry" />
        </mxCell>
        <mxCell id="sq4rwOPdEHnDOBXyUKIg-68" value="Registrar número de cartão" style="rounded=1;whiteSpace=wrap;html=1;arcSize=40;fontColor=#000000;fillColor=#ffffc0;strokeColor=#ff0000;" vertex="1" parent="1">
          <mxGeometry x="390" y="490" width="120" height="40" as="geometry" />
        </mxCell>
        <mxCell id="sq4rwOPdEHnDOBXyUKIg-72" style="edgeStyle=orthogonalEdgeStyle;rounded=0;orthogonalLoop=1;jettySize=auto;html=1;exitX=0.5;exitY=1;exitDx=0;exitDy=0;entryX=0;entryY=0.5;entryDx=0;entryDy=0;" edge="1" parent="1" source="sq4rwOPdEHnDOBXyUKIg-70" target="sq4rwOPdEHnDOBXyUKIg-68">
          <mxGeometry relative="1" as="geometry" />
        </mxCell>
        <mxCell id="sq4rwOPdEHnDOBXyUKIg-70" value="Pagou no período desejado?" style="rhombus;whiteSpace=wrap;html=1;fillColor=#ffffc0;strokeColor=#ff0000;" vertex="1" parent="1">
          <mxGeometry x="85" y="360" width="150" height="75" as="geometry" />
        </mxCell>
        <mxCell id="sq4rwOPdEHnDOBXyUKIg-73" value="" style="ellipse;html=1;shape=endState;fillColor=#000000;strokeColor=#ff0000;" vertex="1" parent="1">
          <mxGeometry x="435" y="620" width="30" height="30" as="geometry" />
        </mxCell>
      </root>
    </mxGraphModel>
  </diagram>
</mxfile>
